<svg width="28" height="28" viewBox="0 0 28 28" fill="none" xmlns="http://www.w3.org/2000/svg">
<g clip-path="url(#clip0_2136_111)">
<path d="M14 10.5C13.0718 10.5 12.1815 10.8688 11.5252 11.5252C10.8688 12.1815 10.5 13.0718 10.5 14C10.5 14.9283 10.8688 15.8185 11.5252 16.4749C12.1815 17.1313 13.0718 17.5 14 17.5C14.9283 17.5 15.8185 17.1313 16.4749 16.4749C17.1313 15.8185 17.5 14.9283 17.5 14C17.5 13.0718 17.1313 12.1815 16.4749 11.5252C15.8185 10.8688 14.9283 10.5 14 10.5ZM14 8.16671C15.5471 8.16671 17.0309 8.78129 18.1248 9.87525C19.2188 10.9692 19.8334 12.4529 19.8334 14C19.8334 15.5471 19.2188 17.0309 18.1248 18.1248C17.0309 19.2188 15.5471 19.8334 14 19.8334C12.4529 19.8334 10.9692 19.2188 9.87525 18.1248C8.78129 17.0309 8.16671 15.5471 8.16671 14C8.16671 12.4529 8.78129 10.9692 9.87525 9.87525C10.9692 8.78129 12.4529 8.16671 14 8.16671ZM21.5834 7.87504C21.5834 8.26181 21.4297 8.63275 21.1562 8.90624C20.8827 9.17973 20.5118 9.33337 20.125 9.33337C19.7383 9.33337 19.3673 9.17973 19.0938 8.90624C18.8204 8.63275 18.6667 8.26181 18.6667 7.87504C18.6667 7.48827 18.8204 7.11733 19.0938 6.84384C19.3673 6.57035 19.7383 6.41671 20.125 6.41671C20.5118 6.41671 20.8827 6.57035 21.1562 6.84384C21.4297 7.11733 21.5834 7.48827 21.5834 7.87504ZM14 4.66671C11.1137 4.66671 10.6424 4.67487 9.29954 4.73437C8.38487 4.77754 7.77121 4.90004 7.20187 5.12171C6.69554 5.31771 6.33037 5.55221 5.94187 5.94187C5.57672 6.29467 5.29595 6.72539 5.12054 7.20187C4.89887 7.77354 4.77637 8.38604 4.73437 9.29954C4.67371 10.5875 4.66671 11.0379 4.66671 14C4.66671 16.8864 4.67487 17.3577 4.73437 18.7005C4.77754 19.614 4.90004 20.2289 5.12054 20.797C5.31887 21.3045 5.55221 21.6697 5.93954 22.057C6.33271 22.449 6.69787 22.6835 7.19954 22.8772C7.77587 23.1 8.38954 23.2237 9.29954 23.2657C10.5875 23.3264 11.0379 23.3334 14 23.3334C16.8864 23.3334 17.3577 23.3252 18.7005 23.2657C19.6129 23.2225 20.2277 23.1 20.797 22.8795C21.3022 22.6824 21.6697 22.4479 22.057 22.0605C22.4502 21.6674 22.6847 21.3022 22.8784 20.8005C23.1 20.2254 23.2237 19.6105 23.2657 18.7005C23.3264 17.4125 23.3334 16.9622 23.3334 14C23.3334 11.1137 23.3252 10.6424 23.2657 9.29954C23.2225 8.38721 23.1 7.77121 22.8784 7.20187C22.7025 6.72588 22.4223 6.29533 22.0582 5.94187C21.7056 5.57653 21.2748 5.29574 20.7982 5.12054C20.2265 4.89887 19.6129 4.77637 18.7005 4.73437C17.4125 4.67371 16.9622 4.66671 14 4.66671ZM14 2.33337C17.1699 2.33337 17.5654 2.34504 18.809 2.40337C20.0515 2.46171 20.8974 2.65654 21.6417 2.94587C22.4117 3.24221 23.0604 3.64354 23.709 4.29104C24.3023 4.87425 24.7613 5.57973 25.0542 6.35837C25.3424 7.10154 25.5384 7.94854 25.5967 9.19104C25.6515 10.4347 25.6667 10.8302 25.6667 14C25.6667 17.1699 25.655 17.5654 25.5967 18.809C25.5384 20.0515 25.3424 20.8974 25.0542 21.6417C24.7622 22.4208 24.303 23.1264 23.709 23.709C23.1257 24.3021 22.4202 24.7611 21.6417 25.0542C20.8985 25.3424 20.0515 25.5384 18.809 25.5967C17.5654 25.6515 17.1699 25.6667 14 25.6667C10.8302 25.6667 10.4347 25.655 9.19104 25.5967C7.94854 25.5384 7.10271 25.3424 6.35837 25.0542C5.57942 24.7619 4.87382 24.3028 4.29104 23.709C3.69768 23.1259 3.23863 22.4204 2.94587 21.6417C2.65654 20.8985 2.46171 20.0515 2.40337 18.809C2.34854 17.5654 2.33337 17.1699 2.33337 14C2.33337 10.8302 2.34504 10.4347 2.40337 9.19104C2.46171 7.94737 2.65654 7.10271 2.94587 6.35837C3.23782 5.57925 3.69698 4.87358 4.29104 4.29104C4.87399 3.69748 5.57954 3.23839 6.35837 2.94587C7.10271 2.65654 7.94737 2.46171 9.19104 2.40337C10.4347 2.34854 10.8302 2.33337 14 2.33337Z" fill="black"/>
</g>
<defs>
<clipPath id="clip0_2136_111">
<rect width="28" height="28" fill="white"/>
</clipPath>
</defs>
</svg>
